<svg width="54" height="54" viewBox="0 0 54 54" fill="none" xmlns="http://www.w3.org/2000/svg">
<path d="M54 20.25C54 13.413 47.3475 7.8495 39 7.5315V7.5H15V7.5315C6.6525 7.8495 0 13.413 0 20.25C0 23.0415 1.1205 25.614 3 27.714V46.5C3 48.0913 3.63214 49.6174 4.75736 50.7426C5.88258 51.8679 7.4087 52.5 9 52.5H45C46.5913 52.5 48.1174 51.8679 49.2426 50.7426C50.3679 49.6174 51 48.0913 51 46.5V27.714C52.8795 25.614 54 23.0415 54 20.25Z" fill="#D99E82"/>
<path d="M28.5 27.714H51V29.964H28.5V27.714Z" fill="#CC927A"/>
<path d="M31.5 20.25C31.5 15.0585 26.193 10.8135 19.5 10.5165C19.2525 10.506 16.002 10.5 15.75 10.5C8.709 10.5 3 14.865 3 20.25C3 22.6425 4.131 24.8295 6 26.526V45C6 46.1935 6.47411 47.3381 7.31802 48.182C8.16193 49.0259 9.30653 49.5 10.5 49.5H24C25.1935 49.5 26.3381 49.0259 27.182 48.182C28.0259 47.3381 28.5 46.1935 28.5 45V26.5185C30.366 24.822 31.5 22.6395 31.5 20.25Z" fill="#FFE8B6"/>
</svg>
